<?xml version="1.0" encoding="UTF-8"?>
<svg version="1.1" xmlns="http://www.w3.org/2000/svg" width="1126" height="221">
<path d="M0 0 C8.78701313 4.30356076 12.76310508 13.0439497 17.35546875 21.21484375 C18.32373987 22.89816111 19.29384669 24.58042365 20.265625 26.26171875 C22.31442086 29.81791193 24.34848193 33.38197612 26.37109375 36.953125 C29.07166635 41.72072765 31.79726159 46.47310703 34.54296875 51.21484375 C35.18685547 52.32786865 35.18685547 52.32786865 35.84375 53.46337891 C38.77032843 58.51089292 41.72267999 63.54290091 44.68359375 68.5703125 C45.4516009 69.87563803 46.2195858 71.18097664 46.98754883 72.48632812 C48.49476322 75.04803235 50.00552946 77.60759575 51.51831055 80.16601562 C62.88407565 99.436544 62.88407565 99.436544 62.35546875 107.21484375 C60.22991645 115.28333185 56.26504386 122.31334111 51.98046875 129.40234375 C50.71985937 131.52592728 49.45944815 133.64962845 48.19921875 135.7734375 C47.55855469 136.84577637 46.91789063 137.91811523 46.2578125 139.02294922 C43.30038077 143.98514923 40.38966167 148.97426008 37.48046875 153.96484375 C36.91328125 154.93478271 36.34609375 155.90472168 35.76171875 156.90405273 C32.53901256 162.42554474 29.3518448 167.96565518 26.19921875 173.52734375 C25.84737518 174.14708069 25.49553162 174.76681763 25.13302612 175.40533447 C23.42817495 178.40867946 21.72783704 181.41429098 20.03564453 184.42480469 C6.61405788 208.10751142 6.61405788 208.10751142 -2.58203125 210.77734375 C-4.72133327 211.23113509 -6.70889571 211.45265477 -8.89453125 211.52734375 C-9.95414063 211.58341797 -9.95414063 211.58341797 -11.03515625 211.640625 C-18.31339093 210.45300886 -23.97588239 205.65612522 -29.45703125 201.02734375 C-30.84888321 199.87100332 -32.24081071 198.71475382 -33.6328125 197.55859375 C-34.30908691 196.99269531 -34.98536133 196.42679688 -35.68212891 195.84375 C-37.47995693 194.35144986 -39.29497802 192.88611047 -41.125 191.43359375 C-42.12144531 190.63953125 -43.11789063 189.84546875 -44.14453125 189.02734375 C-45.02109375 188.33253906 -45.89765625 187.63773438 -46.80078125 186.921875 C-47.40921875 186.35855469 -48.01765625 185.79523438 -48.64453125 185.21484375 C-48.64453125 184.55484375 -48.64453125 183.89484375 -48.64453125 183.21484375 C-49.22203125 182.94671875 -49.79953125 182.67859375 -50.39453125 182.40234375 C-52.67711805 181.19764516 -54.61832545 179.8068626 -56.64453125 178.21484375 C-56.3426198 175.13397459 -55.72984816 174.28684779 -53.31640625 172.25 C-52.3521875 171.59902344 -51.38796875 170.94804687 -50.39453125 170.27734375 C-45.79365003 167.11027107 -45.79365003 167.11027107 -41.76953125 163.27734375 C-39.1673997 160.75174548 -38.27684555 160.20986798 -34.64453125 160.21484375 C-31.78817278 161.88957516 -29.37906704 164.03795333 -26.89453125 166.21484375 C-25.47319349 167.41730199 -24.05132157 168.61912913 -22.62890625 169.8203125 C-21.94634766 170.40474121 -21.26378906 170.98916992 -20.56054688 171.59130859 C-18.14179093 173.64084058 -15.65733708 175.59472398 -13.14453125 177.52734375 C-12.108125 178.32591797 -12.108125 178.32591797 -11.05078125 179.140625 C-10.3546875 179.67236328 -10.3546875 179.67236328 -9.64453125 180.21484375 C-9.42023438 179.57675781 -9.1959375 178.93867188 -8.96484375 178.28125 C-7.14014666 174.043418 -4.83214297 170.14043832 -2.51953125 166.15234375 C-1.43469717 164.26834354 -0.350073 162.38422246 0.734375 160.5 C1.31719238 159.48953613 1.90000977 158.47907227 2.50048828 157.43798828 C4.44798296 154.05409453 6.38587678 150.66480483 8.3203125 147.2734375 C8.65648087 146.68444168 8.99264923 146.09544586 9.33900452 145.48860168 C11.04958499 142.49098853 12.75792926 139.49212914 14.46313477 136.49145508 C17.53372975 131.09602926 20.63025318 125.72289228 23.85546875 120.41796875 C24.3774585 119.55059082 24.89944824 118.68321289 25.43725586 117.78955078 C26.39264028 116.20895271 27.36131709 114.63627745 28.34594727 113.07373047 C28.76287842 112.38037598 29.17980957 111.68702148 29.609375 110.97265625 C29.97361572 110.38629395 30.33785645 109.79993164 30.71313477 109.19580078 C31.92018595 105.47325678 30.82670815 102.21922988 29.21069336 98.77490234 C28.73124268 97.97906738 28.25179199 97.18323242 27.7578125 96.36328125 C27.21157227 95.44361572 26.66533203 94.5239502 26.10253906 93.57641602 C25.50538086 92.59084717 24.90822266 91.60527832 24.29296875 90.58984375 C23.01423734 88.4409293 21.73695273 86.29115341 20.4609375 84.140625 C19.78981934 83.01350098 19.11870117 81.88637695 18.42724609 80.72509766 C15.26045995 75.38080715 12.19803752 69.97677764 9.12878418 64.57611084 C7.45041546 61.62590182 5.7637338 58.68045125 4.078125 55.734375 C1.78134128 51.71807406 -0.50247291 47.69500617 -2.7734375 43.6640625 C-3.66744605 42.09735787 -4.56193313 40.53092614 -5.45703125 38.96484375 C-5.84729492 38.26174072 -6.23755859 37.5586377 -6.63964844 36.83422852 C-7.79637247 34.763879 -7.79637247 34.763879 -9.64453125 32.21484375 C-13.70540398 32.21484375 -15.38126614 34.27166647 -18.26953125 36.83984375 C-19.43899133 37.85544951 -20.60962352 38.86970672 -21.78125 39.8828125 C-22.40563965 40.42470215 -23.0300293 40.9665918 -23.67333984 41.52490234 C-27.09521606 44.45854455 -30.59241219 47.2999629 -34.08203125 50.15234375 C-39.44717265 54.55135088 -44.76514665 58.99659507 -50.01953125 63.52734375 C-57.36581224 69.86134601 -64.85245829 76.00551117 -72.45703125 82.02734375 C-78.40849734 86.77140378 -84.15645431 91.74965769 -89.91552734 96.72363281 C-92.81906849 99.22784481 -95.7319406 101.72116852 -98.64453125 104.21484375 C-97.2723232 107.40201876 -95.80947574 109.17267754 -93.08984375 111.30859375 C-92.39246094 111.86417969 -91.69507813 112.41976562 -90.9765625 112.9921875 C-90.24824219 113.56066406 -89.51992187 114.12914063 -88.76953125 114.71484375 C-78.36098799 122.92623477 -78.36098799 122.92623477 -76.64453125 125.21484375 C-76.4609375 127.609375 -76.4609375 127.609375 -77.64453125 130.21484375 C-79.77160063 132.36903835 -82.13888326 134.12264724 -84.58203125 135.90234375 C-85.86261397 136.86373835 -87.14258818 137.82594417 -88.421875 138.7890625 C-89.27640259 139.41687622 -89.27640259 139.41687622 -90.14819336 140.05737305 C-91.79445434 141.2803252 -91.79445434 141.2803252 -93.64453125 143.21484375 C-99.40962319 143.21484375 -103.60781259 140.07738927 -107.64453125 136.21484375 C-107.64453125 135.55484375 -107.64453125 134.89484375 -107.64453125 134.21484375 C-108.17304687 133.99054688 -108.7015625 133.76625 -109.24609375 133.53515625 C-112.47991677 131.75497354 -115.21450301 129.46567856 -118.01953125 127.08984375 C-118.88626465 126.35604492 -118.88626465 126.35604492 -119.77050781 125.60742188 C-125.26276753 120.85181499 -131.05970897 115.61246575 -131.8828125 108.015625 C-132.09114302 101.03107036 -130.80528732 95.81663555 -126.1328125 90.4921875 C-124.64453125 89.21484375 -124.64453125 89.21484375 -122.64453125 89.21484375 C-122.44859375 88.6734375 -122.25265625 88.13203125 -122.05078125 87.57421875 C-120.03349797 84.1896657 -117.14076047 81.95013704 -114.14453125 79.46484375 C-113.51160156 78.93117188 -112.87867187 78.3975 -112.2265625 77.84765625 C-107.96492789 74.26892049 -103.63265818 70.78510492 -99.265625 67.3359375 C-95.40219287 64.20949391 -91.65213947 60.95498979 -87.88891602 57.70922852 C-83.46194671 53.89743312 -78.96606659 50.18121484 -74.4296875 46.5 C-71.2608112 43.90001033 -68.13980695 41.24772259 -65.01953125 38.58984375 C-50.4437671 26.21484375 -50.4437671 26.21484375 -47.64453125 26.21484375 C-47.41378906 25.63863281 -47.18304688 25.06242187 -46.9453125 24.46875 C-45.31091853 21.63678206 -43.40562011 20.16825889 -40.83203125 18.15234375 C-37.59094811 15.58417932 -34.38378471 13.01431057 -31.2734375 10.2890625 C-30.71052002 9.79865479 -30.14760254 9.30824707 -29.56762695 8.80297852 C-28.48111914 7.85281927 -27.39988 6.89658884 -26.32495117 5.93334961 C-18.56446781 -0.79847288 -9.88127272 -2.9337309 0 0 Z " fill="#FDFCFC" transform="translate(196.64453125,5.78515625)"/>
<path d="M0 0 C1.32451172 -0.04253906 1.32451172 -0.04253906 2.67578125 -0.0859375 C10.38200636 1.09348476 16.10455061 6.01452031 21.875 10.9375 C22.60533447 11.54940186 23.33566895 12.16130371 24.08813477 12.79174805 C26.29529035 14.64431536 28.49274803 16.50776333 30.6875 18.375 C32.59713471 19.99568901 34.50689494 21.616228 36.41723633 23.23608398 C37.53157718 24.18315423 38.6435139 25.13306264 39.75268555 26.08618164 C42.54523615 28.48444415 42.54523615 28.48444415 45.6875 30.375 C45.6875 31.035 45.6875 31.695 45.6875 32.375 C46.3475 32.375 47.0075 32.375 47.6875 32.375 C47.18857334 36.43570864 46.35422913 38.17389098 43.1875 40.75 C42.46949219 41.33523437 41.75148438 41.92046875 41.01171875 42.5234375 C40.24472656 43.13445313 39.47773437 43.74546875 38.6875 44.375 C37.91019531 45.04789063 37.13289063 45.72078125 36.33203125 46.4140625 C35.56246094 47.06117187 34.79289062 47.70828125 34 48.375 C33.29488281 48.973125 32.58976562 49.57125 31.86328125 50.1875 C29.6875 51.375 29.6875 51.375 27.2421875 51.3125 C24.08025658 50.15215838 22.06532177 48.55760759 19.5 46.375 C18.54867187 45.57191406 17.59734375 44.76882812 16.6171875 43.94140625 C12.91492367 40.69822313 9.27694598 37.39072143 5.68359375 34.02734375 C3.86260415 32.16244658 3.86260415 32.16244658 1.6875 32.375 C0.32823384 34.21276294 0.32823384 34.21276294 -1.0078125 36.640625 C-1.82233887 38.0491272 -1.82233887 38.0491272 -2.65332031 39.48608398 C-3.53648926 41.03984741 -3.53648926 41.03984741 -4.4375 42.625 C-5.05206055 43.69242432 -5.66662109 44.75984863 -6.29980469 45.85961914 C-7.96639684 48.75855941 -9.62610994 51.66119674 -11.28161621 54.56646729 C-12.31174902 56.37368252 -13.34355729 58.17992995 -14.37597656 59.98583984 C-14.71737671 60.58301819 -15.05877686 61.18019653 -15.41052246 61.79547119 C-15.75200317 62.39277039 -16.09348389 62.99006958 -16.4453125 63.60546875 C-18.49932184 67.1987118 -20.55188824 70.79274968 -22.59863281 74.39013672 C-26.77411427 81.72357741 -30.99728006 89.02559575 -35.39550781 96.22827148 C-37.58298509 99.87130744 -39.35159244 103.22634534 -40.3125 107.375 C-39.46973815 110.20906973 -39.46973815 110.20906973 -37.76171875 112.90234375 C-37.16963623 113.93431885 -36.57755371 114.96629395 -35.9675293 116.02954102 C-34.99360229 117.65460571 -34.99360229 117.65460571 -34 119.3125 C-33.3500708 120.43261475 -32.7001416 121.55272949 -32.03051758 122.70678711 C-30.14589206 125.94275062 -28.23499182 129.16142299 -26.3125 132.375 C-25.84714844 133.1577832 -25.38179687 133.94056641 -24.90234375 134.74707031 C-23.42278467 137.23401407 -21.93804488 139.71742486 -20.43408203 142.18969727 C-17.42663827 147.13389011 -14.59372487 152.16660758 -11.77636719 157.22094727 C-7.41950975 165.01566741 -2.86595514 172.69401513 1.6875 180.375 C3.6675 179.715 5.6475 179.055 7.6875 178.375 C7.6875 177.715 7.6875 177.055 7.6875 176.375 C9.5859375 174.6484375 9.5859375 174.6484375 12.0625 172.75 C12.87460938 172.11835938 13.68671875 171.48671875 14.5234375 170.8359375 C16.6875 169.375 16.6875 169.375 18.6875 169.375 C19.0175 168.385 19.3475 167.395 19.6875 166.375 C21.81996565 164.56181836 23.95255141 162.86443276 26.1875 161.1875 C31.90732041 156.80012952 37.36229311 152.23759239 42.6875 147.375 C46.87418171 143.59176217 50.8295937 140.26348483 55.6875 137.375 C57.35564749 135.70981547 59.02199518 134.0428277 60.6875 132.375 C63.02818316 130.25168849 65.41802689 128.1872901 67.8125 126.125 C68.46903564 125.55652344 69.12557129 124.98804688 69.80200195 124.40234375 C74.58565622 120.27695849 79.45241501 116.2803203 84.41796875 112.375 C86.84196732 110.23887734 88.74351754 107.94910091 90.6875 105.375 C90.03265625 104.84132813 89.3778125 104.30765625 88.703125 103.7578125 C81.66019674 98.00807729 74.66302024 92.20619406 67.6875 86.375 C68.40598984 79.61182391 76.93037726 74.68515749 81.83203125 70.578125 C86.02615836 67.32516366 86.02615836 67.32516366 88.60546875 67.51953125 C91.32816805 68.63823884 92.93732609 70.21186393 95.0625 72.25 C99.18799516 76.09393317 103.45898775 79.57699354 107.9375 83 C115.11734576 88.54623454 121.80779085 93.84485129 123.09375 103.390625 C123.284603 109.97505364 123.01707643 114.77498427 118.91015625 120.06640625 C113.89106292 125.27955942 108.30456835 129.82702225 102.6875 134.375 C101.74261719 135.1484375 100.79773438 135.921875 99.82421875 136.71875 C98.05966579 138.16176219 96.2927159 139.60184808 94.5234375 141.0390625 C91.25028287 143.73513202 88.02785451 146.48549076 84.8125 149.25 C84.22734619 149.75265381 83.64219238 150.25530762 83.03930664 150.77319336 C80.65082158 152.82576183 78.26294916 154.8790302 75.87744141 156.93505859 C74.12967062 158.43946287 72.37777937 159.93893669 70.625 161.4375 C70.10115723 161.89044434 69.57731445 162.34338867 69.03759766 162.81005859 C66.81501713 164.70496479 64.65355976 166.39484597 62.12890625 167.87109375 C59.18945892 169.68179331 57.09077647 171.90413138 54.6875 174.375 C53.040696 175.77372776 51.37317795 177.14837408 49.6875 178.5 C45.52257074 181.87214111 41.39852141 185.28327774 37.3125 188.75 C36.77206055 189.20737549 36.23162109 189.66475098 35.67480469 190.13598633 C32.86822066 192.51394805 30.07234565 194.90339587 27.2890625 197.30859375 C9.25315642 212.84031075 9.25315642 212.84031075 -1.03125 212.6484375 C-6.87168619 211.94838522 -12.44408437 209.78544155 -16.5 205.4375 C-20.48257739 200.21389283 -23.30831191 194.19051472 -26.3125 188.375 C-29.34946435 182.77524418 -32.7527812 177.39563382 -36.09765625 171.9765625 C-46.06413497 155.79715617 -46.06413497 155.79715617 -50.125 148.1875 C-52.51692989 143.7059909 -55.11350289 139.37380644 -57.75561523 135.03735352 C-72.50063409 110.79576892 -72.50063409 110.79576892 -70.3125 101.375 C-65.6353981 89.43791904 -58.38003468 78.45367143 -51.88671875 67.44921875 C-48.66778294 61.99311825 -45.50733035 56.50617826 -42.375 51 C-36.99604239 41.55348734 -31.56634729 32.1367202 -26.12329102 22.72705078 C-25.51155029 21.66856934 -24.89980957 20.61008789 -24.26953125 19.51953125 C-23.72272705 18.57440674 -23.17592285 17.62928223 -22.61254883 16.65551758 C-21.81035942 15.24833423 -21.03688565 13.82377129 -20.3125 12.375 C-19.6525 12.375 -18.9925 12.375 -18.3125 12.375 C-18.21453125 11.77945312 -18.1165625 11.18390625 -18.015625 10.5703125 C-17.17173309 7.93549441 -16.17467933 7.00402719 -14.0625 5.25 C-13.47984375 4.75242187 -12.8971875 4.25484375 -12.296875 3.7421875 C-8.35440486 1.0259187 -4.75750883 0.06884962 0 0 Z " fill="#FDFCFC" transform="translate(72.3125,4.625)"/>
<path d="M0 0 C6.79400109 5.52876458 13.21820217 11.60023465 18 19 C18 19.99 18 20.98 18 22 C18.66 22 19.32 22 20 22 C29.05842771 39.86622698 31.56646435 60.81729497 25.33520508 80.12207031 C19.14395483 97.33278286 7.84186757 111.19366475 -8.44921875 119.828125 C-27.47629011 128.76672637 -48.73628179 129.87602691 -68.625 122.75 C-82.9164906 116.9456638 -93.63441048 106.83846625 -102 94 C-102.48339844 93.26007813 -102.96679688 92.52015625 -103.46484375 91.7578125 C-111.94614214 77.68246624 -114.05689163 59.77995167 -111.46875 43.69921875 C-110.76864194 41.07000859 -109.93733562 38.55343152 -109 36 C-108.7215625 35.1028125 -108.443125 34.205625 -108.15625 33.28125 C-105.82571716 26.12892507 -102.29569321 20.14951904 -98 14 C-97.21302734 12.85337891 -97.21302734 12.85337891 -96.41015625 11.68359375 C-95.94480469 11.12800781 -95.47945313 10.57242188 -95 10 C-94.34 10 -93.68 10 -93 10 C-92.64228516 9.12988281 -92.64228516 9.12988281 -92.27734375 8.2421875 C-85.91345483 -2.92867562 -70.13694742 -8.21987579 -58.578125 -12.01953125 C-38.60782357 -17.49174267 -16.28988803 -12.64118295 0 0 Z M-62 17 C-63.17949219 17.61875 -63.17949219 17.61875 -64.3828125 18.25 C-74.25654079 24.14076671 -80.53413742 33.56486353 -83.71484375 44.4453125 C-86.64664873 57.2839356 -85.24820353 71.37332879 -78.3125 82.625 C-70.569382 93.60719459 -59.85982794 99.04163583 -47 102 C-35.40125649 103.6020364 -24.04997913 99.59918407 -14.5078125 93.1171875 C-10.07958333 89.37871365 -7.01447072 84.91009533 -4 80 C-3.56816406 79.30777344 -3.13632812 78.61554688 -2.69140625 77.90234375 C2.54431723 68.56242677 3.627063 56.2507664 0.8125 46 C-3.66523282 32.71258818 -10.72096965 23.04320709 -23 16 C-34.42781541 10.3561402 -50.88652348 11.16997953 -62 17 Z " fill="#FEFEFE" transform="translate(476,48)"/>
<path d="M0 0 C3.3693755 2.67367449 5.4981326 5.40298204 7.625 9.125 C8.39070312 8.25488281 8.39070312 8.25488281 9.171875 7.3671875 C16.63496683 -0.65166648 25.0379838 -6.38556322 36.2578125 -6.8515625 C37.03898438 -6.85929687 37.82015625 -6.86703125 38.625 -6.875 C39.38554688 -6.92398438 40.14609375 -6.97296875 40.9296875 -7.0234375 C49.82643607 -7.42363726 57.62250258 -4.2804366 64.625 1.125 C77.99235016 14.79615357 75.93454635 34.63962709 75.83081055 52.44311523 C75.81251149 55.68546433 75.810302 58.92752634 75.81054688 62.16992188 C75.79127123 73.19464509 75.58733474 84.13843734 74.625 95.125 C70.47918113 95.15386751 66.33338784 95.17175327 62.1875 95.1875 C61.00349609 95.19587891 59.81949219 95.20425781 58.59960938 95.21289062 C57.47490234 95.21611328 56.35019531 95.21933594 55.19140625 95.22265625 C53.62821655 95.23051147 53.62821655 95.23051147 52.03344727 95.23852539 C49.625 95.125 49.625 95.125 48.625 94.125 C48.51731285 92.31184165 48.47873421 90.49453998 48.46728516 88.67822266 C48.45702301 87.51255768 48.44676086 86.3468927 48.43618774 85.14590454 C48.42888641 83.87314667 48.42158508 82.60038879 48.4140625 81.2890625 C48.39317463 79.29557118 48.37226903 77.30207987 48.35036278 75.30859947 C48.29726641 70.38402611 48.25324668 65.45943918 48.22363281 60.53466797 C48.20662106 57.7797579 48.18180683 55.02511972 48.14877319 52.27035522 C48.11803511 49.67820286 48.09843777 47.08588666 48.09170532 44.49356079 C48.05245147 31.88494315 48.05245147 31.88494315 42.70498657 20.88345337 C38.68928727 17.48851801 34.37779358 17.79070271 29.3515625 17.84375 C24.39929183 18.35458594 21.8259506 20.9240494 18.4375 24.3125 C9.7471992 37.79744951 12.35189611 57.55934529 12.0625 72.9375 C12.01921594 75.09440781 11.97559884 77.25130895 11.93164062 79.40820312 C11.82558726 84.64706486 11.7236455 89.88599381 11.625 95.125 C7.47918113 95.15386751 3.33338784 95.17175327 -0.8125 95.1875 C-1.99650391 95.19587891 -3.18050781 95.20425781 -4.40039062 95.21289062 C-5.52509766 95.21611328 -6.64980469 95.21933594 -7.80859375 95.22265625 C-9.37178345 95.23051147 -9.37178345 95.23051147 -10.96655273 95.23852539 C-13.375 95.125 -13.375 95.125 -14.375 94.125 C-14.48268992 92.30654502 -14.52126597 90.48395845 -14.53271484 88.66235352 C-14.54297699 87.49346085 -14.55323914 86.32456818 -14.56381226 85.12025452 C-14.57111359 83.84435959 -14.57841492 82.56846466 -14.5859375 81.25390625 C-14.60682406 79.25691589 -14.62772828 77.25992554 -14.64963722 75.26294613 C-14.70275888 70.32844385 -14.74678899 65.39392874 -14.77636719 60.45922852 C-14.7933614 57.69834176 -14.81815765 54.93772765 -14.85122681 52.17698669 C-14.8820105 49.57819192 -14.90157268 46.97923268 -14.90829468 44.38026428 C-15.02543425 35.91456281 -15.32376241 27.77160103 -20.9375 21.0625 C-25.75800649 17.23081535 -30.38705397 17.44528721 -36.375 18.125 C-41.77885717 19.90210739 -44.64239239 23.00046343 -47.3125 27.9375 C-51.14076708 35.89250922 -50.56483706 45.08596109 -50.69140625 53.71875 C-50.71218735 54.90601685 -50.73296844 56.09328369 -50.75437927 57.31652832 C-50.81943855 61.08596352 -50.8785559 64.85546471 -50.9375 68.625 C-50.98072675 71.19011082 -51.02434233 73.75521512 -51.06835938 76.3203125 C-51.17580201 82.58847521 -51.27519971 88.85669237 -51.375 95.125 C-59.955 95.125 -68.535 95.125 -77.375 95.125 C-77.375 62.455 -77.375 29.785 -77.375 -3.875 C-74.0694679 -4.70138303 -71.75790436 -5.00340368 -68.42578125 -5.0078125 C-67.03069336 -5.00974609 -67.03069336 -5.00974609 -65.60742188 -5.01171875 C-64.64384766 -5.00785156 -63.68027344 -5.00398438 -62.6875 -5 C-61.71232422 -5.00386719 -60.73714844 -5.00773437 -59.73242188 -5.01171875 C-58.80623047 -5.01042969 -57.88003906 -5.00914063 -56.92578125 -5.0078125 C-55.65214722 -5.00612061 -55.65214722 -5.00612061 -54.3527832 -5.00439453 C-52.375 -4.875 -52.375 -4.875 -51.375 -3.875 C-50.92040142 -1.22036879 -50.67256762 1.44689138 -50.375 4.125 C-49.67503906 3.53074219 -48.97507812 2.93648437 -48.25390625 2.32421875 C-45.36912456 0.1205117 -42.56532649 -1.46281668 -39.3125 -3.0625 C-38.29027344 -3.57167969 -37.26804687 -4.08085938 -36.21484375 -4.60546875 C-24.0933331 -10.02430089 -10.56762751 -7.36825405 0 0 Z " fill="#FEFEFE" transform="translate(753.375,76.875)"/>
<path d="M0 0 C11.69731738 7.96273082 19.52587437 18.89711885 22.875 32.8125 C25.28364804 50.07931425 22.67210859 65.55352206 12.8125 80.12109375 C12.338125 80.67925781 11.86375 81.23742187 11.375 81.8125 C10.715 81.8125 10.055 81.8125 9.375 81.8125 C9.106875 82.451875 8.83875 83.09125 8.5625 83.75 C7.375 85.8125 7.375 85.8125 4.375 86.8125 C4.375 87.4725 4.375 88.1325 4.375 88.8125 C-6.15648016 96.81719646 -18.37106377 99.91015958 -31.44921875 98.45703125 C-39.1981475 96.88437043 -46.31380452 93.54589661 -52.625 88.8125 C-54.80282681 90.99032681 -53.88589916 96.06353078 -53.94140625 99.09765625 C-53.96218735 100.02847519 -53.98296844 100.95929413 -54.00437927 101.9183197 C-54.06997931 104.90380182 -54.12880802 107.88937484 -54.1875 110.875 C-54.2306753 112.89388976 -54.27428925 114.9127702 -54.31835938 116.93164062 C-54.42650018 121.89183513 -54.52549549 126.85209451 -54.625 131.8125 C-62.875 131.8125 -71.125 131.8125 -79.625 131.8125 C-80.750043 120.56207004 -80.750043 120.56207004 -80.75198364 116.13935852 C-80.75480347 115.13444366 -80.75762329 114.12952881 -80.76052856 113.09416199 C-80.75850433 112.02837418 -80.7564801 110.96258636 -80.75439453 109.86450195 C-80.75614685 108.71361084 -80.75789917 107.56271973 -80.75970459 106.37695312 C-80.76407873 102.60154682 -80.76120138 98.82618797 -80.7578125 95.05078125 C-80.75848667 92.41383353 -80.75945765 89.77688587 -80.76071167 87.13993835 C-80.76252445 81.62673433 -80.76014971 76.11354377 -80.75537109 70.6003418 C-80.74992208 64.24051664 -80.75169936 57.88072351 -80.7571975 51.52089912 C-80.76229263 45.37956654 -80.76174049 39.2382481 -80.75881577 33.09691429 C-80.75814953 30.49303368 -80.7589643 27.88915225 -80.76129532 25.2852726 C-80.76383812 21.6475979 -80.75995858 18.00998458 -80.75439453 14.37231445 C-80.75641876 13.30045395 -80.75844299 12.22859344 -80.76052856 11.12425232 C-80.75770874 10.12779694 -80.75488892 9.13134155 -80.75198364 8.10469055 C-80.75160662 7.24658437 -80.75122959 6.38847818 -80.75084114 5.50436878 C-80.59896429 2.25557004 -80.0849513 -0.96784091 -79.625 -4.1875 C-71.375 -4.1875 -63.125 -4.1875 -54.625 -4.1875 C-53.965 -1.5475 -53.305 1.0925 -52.625 3.8125 C-51.23087891 2.98105469 -51.23087891 2.98105469 -49.80859375 2.1328125 C-48.56013501 1.40063369 -47.31142348 0.66888579 -46.0625 -0.0625 C-45.45341797 -0.42730469 -44.84433594 -0.79210937 -44.21679688 -1.16796875 C-30.30388978 -9.2654279 -13.55533572 -8.1220753 0 0 Z M-49.625 26.8125 C-54.61417045 33.38360254 -55.60320883 39.69528879 -55.625 47.8125 C-55.64820313 48.59753906 -55.67140625 49.38257812 -55.6953125 50.19140625 C-55.47175029 57.13425487 -52.07877488 62.63908466 -47.625 67.8125 C-40.10908145 73.62283946 -33.08488801 75.91306213 -23.625 74.8125 C-14.98762975 71.87652506 -9.18915661 66.68173553 -4.625 58.8125 C-1.30458233 50.51145583 -1.5322684 41.80976368 -4.625 33.5 C-7.85388652 26.55107238 -12.43499915 22.00316636 -19.4375 18.875 C-30.7272215 15.33312659 -41.44186354 18.44338316 -49.625 26.8125 Z " fill="#FEFEFE" transform="translate(930.625,76.1875)"/>
<path d="M0 0 C8.25 0 16.5 0 25 0 C25.495 37.62 25.495 37.62 26 76 C34.75803899 66.56117541 34.75803899 66.56117541 43.29296875 56.95703125 C46.01964967 53.83101949 48.80971453 50.76240485 51.59375 47.6875 C53.94767308 45.19826769 53.94767308 45.19826769 55.34106445 42.92822266 C57.90635367 39.2925511 59.66907606 37.28696811 64.12060547 36.32714844 C67.84025929 36.13975776 71.4673847 36.20356612 75.1875 36.375 C76.45787109 36.39433594 77.72824219 36.41367188 79.03710938 36.43359375 C89.15404018 36.67969572 89.15404018 36.67969572 93 39 C91.38405168 41.04119788 89.7143618 43.04072937 88 45 C87.34 45 86.68 45 86 45 C85.773125 45.556875 85.54625 46.11375 85.3125 46.6875 C83.635632 49.64198172 81.40627404 51.59713428 79 54 C77.14331527 56.08839033 75.35241088 58.22930701 73.5625 60.375 C73.08240479 60.94500732 72.60230957 61.51501465 72.10766602 62.10229492 C70.06687226 64.52550022 68.03631436 66.95586298 66.0234375 69.40234375 C64.72253185 70.96919809 63.36816032 72.49151554 62 74 C61.34 74 60.68 74 60 74 C59.73445313 74.58265625 59.46890625 75.1653125 59.1953125 75.765625 C57.96697004 78.06174228 56.59685061 79.80356018 54.875 81.75 C54.33617187 82.36359375 53.79734375 82.9771875 53.2421875 83.609375 C52.83226562 84.06828125 52.42234375 84.5271875 52 85 C55.89916782 89.65733934 59.94570079 94.16050668 64.0625 98.625 C64.5687793 99.17502686 65.07505859 99.72505371 65.59667969 100.29174805 C67.88445907 102.7644699 70.18886164 105.18601305 72.58984375 107.55078125 C75.92324497 110.93820842 78.78059468 114.6493112 81.71875 118.37890625 C83.96626014 120.96123383 86.33169519 122.87216523 89 125 C90.27748295 126.52325121 91.5095583 128.08602871 92.6875 129.6875 C94.9053248 132.86184029 94.9053248 132.86184029 98 135 C98 135.66 98 136.32 98 137 C93.57106883 137.17406614 89.14398753 137.30053094 84.71264648 137.38452148 C83.20806165 137.41955689 81.70371231 137.46720379 80.19995117 137.52807617 C67.73802998 138.01961367 67.73802998 138.01961367 63.41064453 135.48095703 C61.61216209 133.73322542 60.21908998 132.18811823 59 130 C59 129.34 59 128.68 59 128 C58.34 128 57.68 128 57 128 C55.58984375 126.6015625 55.58984375 126.6015625 53.9375 124.625 C51.13448223 121.32457825 48.2852134 118.08157904 45.375 114.875 C42.94547061 112.18604629 40.54365941 109.49326576 38.25 106.6875 C35.96440599 103.95748494 33.54841345 101.48470312 31 99 C29.35 97.35 27.7 95.7 26 94 C25.67 108.19 25.34 122.38 25 137 C16.75 137 8.5 137 0 137 C0 91.79 0 46.58 0 0 Z " fill="#FEFEFE" transform="translate(1018,35)"/>
<path d="M0 0 C4.08279501 -0.17421117 8.16463681 -0.28082588 12.25 -0.375 C13.40886719 -0.42527344 14.56773437 -0.47554688 15.76171875 -0.52734375 C18.94094352 -0.58247482 21.86779256 -0.55161079 25 0 C27.625 2.60546875 27.625 2.60546875 29 6 C29.70382812 7.58361328 29.70382812 7.58361328 30.421875 9.19921875 C31.07929687 10.92591797 31.07929687 10.92591797 31.75 12.6875 C32.26125637 14.00849674 32.77437333 15.32877446 33.2890625 16.6484375 C33.69753418 17.69789551 33.69753418 17.69789551 34.11425781 18.76855469 C35.71871971 22.81066652 37.42619046 26.80934513 39.125 30.8125 C41.51994349 36.46691682 43.87206435 42.13094888 46.125 47.84375 C47.65158969 51.60570316 49.32153393 55.30380343 51 59 C57.86549989 45.61419295 64.09177724 31.96550833 70.23681641 18.23681641 C73.00917509 12.07878364 75.93294123 6.01665571 79 0 C82.95831809 -0.02892857 86.91660917 -0.04677427 90.875 -0.0625 C92.56689453 -0.07506836 92.56689453 -0.07506836 94.29296875 -0.08789062 C95.90751953 -0.09272461 95.90751953 -0.09272461 97.5546875 -0.09765625 C98.54968262 -0.10289307 99.54467773 -0.10812988 100.56982422 -0.11352539 C103 0 103 0 105 1 C103.47315857 6.10103841 101.78030575 10.59442782 99.01074219 15.17822266 C97.93978248 17.10853699 97.16899112 19.02027356 96.390625 21.0859375 C93.16869421 29.27019375 89.37681004 37.20659229 85.6875 45.1875 C84.94574354 46.7974247 84.20420575 48.40745016 83.46289062 50.01757812 C79.00534312 59.69248588 74.51256844 69.35064617 70 79 C66.93449885 85.56389738 63.92876672 92.13182673 61.125 98.8125 C58.59001377 104.78973069 55.77213327 110.57861495 52.83178711 116.36572266 C50.70549434 120.55648238 48.69818601 124.76678376 46.88671875 129.10546875 C46.59410156 129.73066406 46.30148437 130.35585937 46 131 C45.61005859 131.85400391 45.22011719 132.70800781 44.81835938 133.58789062 C43 136 43 136 40.27270508 136.56762695 C39.19915771 136.54144287 38.12561035 136.51525879 37.01953125 136.48828125 C35.85615234 136.47216797 34.69277344 136.45605469 33.49414062 136.43945312 C32.27919922 136.39755859 31.06425781 136.35566406 29.8125 136.3125 C27.97268555 136.27866211 27.97268555 136.27866211 26.09570312 136.24414062 C23.06258441 136.18513053 20.03189778 136.10284592 17 136 C19.03440039 127.52165038 23.08916641 119.68667636 27 111.9375 C27.3407959 111.25518311 27.6815918 110.57286621 28.03271484 109.86987305 C29.5525622 106.83345858 31.09454646 103.82798093 32.73046875 100.8515625 C35.82869987 94.95417557 35.82869987 94.95417557 35.125 88.5625 C34.44887495 87.02707659 33.73817201 85.50657632 33 84 C32.2638191 82.23207115 31.53529074 80.46094531 30.8125 78.6875 C30.37679687 77.66011719 29.94109375 76.63273437 29.4921875 75.57421875 C28.08819911 72.21126226 26.73943088 68.83186987 25.40209961 65.44213867 C21.20441466 54.81459057 16.74797896 44.30696341 12.21264648 33.8203125 C8.53469796 25.30666651 4.96908322 16.76168918 1.75 8.0625 C1.41484375 7.16660156 1.0796875 6.27070312 0.734375 5.34765625 C0 3 0 3 0 0 Z " fill="#FDFDFD" transform="translate(558,72)"/>
<path d="M0 0 C8.91 0 17.82 0 27 0 C27.02254646 17.71492797 27.04097884 35.42984375 27.05181217 53.14478207 C27.05697527 61.36955719 27.06401823 69.59432279 27.07543945 77.8190918 C27.08538586 84.98520446 27.09185332 92.15131023 27.09408849 99.3174296 C27.09539568 103.11416989 27.09848198 106.91089045 27.10573006 110.70762444 C27.1124896 114.27718902 27.1146171 117.84672563 27.11310768 121.41629601 C27.11351636 123.35914846 27.1189119 125.30199784 27.12442017 127.24484253 C27.1230455 128.39054214 27.12167084 129.53624176 27.12025452 130.71665955 C27.12117631 131.71864852 27.1220981 132.72063749 27.12304783 133.75298977 C27 136 27 136 26 137 C17.42 137 8.84 137 0 137 C0 91.79 0 46.58 0 0 Z " fill="#FDFDFD" transform="translate(521,35)"/>
<path d="M0 0 C0 33 0 66 0 100 C-8.58 100 -17.16 100 -26 100 C-26 67.33 -26 34.66 -26 1 C-17.49535069 -0.70092986 -8.67307455 0 0 0 Z " fill="#FEFEFE" transform="translate(996,72)"/>
<path d="M0 0 C3.53691444 3.01677997 5.66230751 6.42442254 7.125 10.8125 C7.54641936 16.2909517 6.799874 19.99772681 4.125 24.8125 C1.32982868 27.85038928 -1.65077019 30.43977384 -5.875 30.8125 C-7.1125 30.93625 -8.35 31.06 -9.625 31.1875 C-14.66564629 31.11226647 -18.0708768 28.97699186 -21.875 25.8125 C-25.38274539 22.12936734 -26.16036 19.26263489 -26.375 14.3125 C-26.19519675 9.41119667 -25.16771336 6.57560099 -21.875 2.8125 C-21.42125 2.235 -20.9675 1.6575 -20.5 1.0625 C-14.5181284 -3.53893969 -6.64113178 -2.74307617 0 0 Z " fill="#FDFDFD" transform="translate(992.875,34.1875)"/>
<path d="M0 0 C0 3 0 3 -2.3359375 5.33984375 C-3.33882812 6.19707031 -4.34171875 7.05429688 -5.375 7.9375 C-10.1526694 11.78026769 -10.1526694 11.78026769 -13 17 C-13.27957674 20.37226241 -13.27957674 20.37226241 -13.1875 24 C-13.18105469 25.216875 -13.17460938 26.43375 -13.16796875 27.6875 C-13.03394204 30.33063144 -12.78329524 32.49345523 -12 35 C-14.75347128 32.485961 -15.82748627 30.59221693 -16.23828125 26.80078125 C-16.44661177 19.81622661 -15.16075607 14.6017918 -10.48828125 9.27734375 C-9 8 -9 8 -7 8 C-6.6596875 7.13375 -6.6596875 7.13375 -6.3125 6.25 C-4.66961977 3.4336339 -2.60466773 1.91922886 0 0 Z " fill="#EFEBE9" transform="translate(81,87)"/>
<path d="M0 0 C0.99 0.33 1.98 0.66 3 1 C1.7315625 1.804375 1.7315625 1.804375 0.4375 2.625 C-3.30774716 5.10991339 -6.64327872 8.02066159 -10 11 C-9.43997584 7.46340908 -8.32225676 6.04440308 -5.5625 3.8125 C-4.94503906 3.30332031 -4.32757813 2.79414063 -3.69140625 2.26953125 C-2 1 -2 1 0 0 Z " fill="#F5F0EF" transform="translate(64,6)"/>
<path d="M0 0 C0.99 0.33 1.98 0.66 3 1 C2.195625 1.61875 1.39125 2.2375 0.5625 2.875 C-2.03874519 4.74164041 -2.03874519 4.74164041 -3 7 C-5.3140622 7.73075648 -7.64828869 8.40138258 -10 9 C-3.73362445 2.55458515 -3.73362445 2.55458515 0 0 Z " fill="#EAE7E3" transform="translate(159,72)"/>
<path d="M0 0 C0.66 0.99 1.32 1.98 2 3 C0.69791667 4.49739583 -0.60416667 5.99479167 -1.90625 7.4921875 C-3.19572458 8.95936421 -3.19572458 8.95936421 -3 11 C-3.66 11 -4.32 11 -5 11 C-5.33 11.66 -5.66 12.32 -6 13 C-5.51675181 7.84535266 -2.81389239 4.18449681 0 0 Z " fill="#EDEAE9" transform="translate(23,68)"/>
<path d="M0 0 C1.32 0.66 2.64 1.32 4 2 C3.38125 2.4125 2.7625 2.825 2.125 3.25 C-0.06768281 5.05573879 -0.92788417 6.4090534 -2 9 C-2.99 8.34 -3.98 7.68 -5 7 C-4.175 6.030625 -3.35 5.06125 -2.5 4.0625 C0.10539608 1.52977999 0.10539608 1.52977999 0 0 Z " fill="#EAE5E5" transform="translate(163,109)"/>
<path d="M0 0 C0 4.38968456 -2.12805101 5.76905739 -5 9 C-5.99 8.34 -6.98 7.68 -8 7 C-5.36 4.69 -2.72 2.38 0 0 Z " fill="#F1EFF0" transform="translate(107,65)"/>
<path d="M0 0 C0 4.38968456 -2.12805101 5.76905739 -5 9 C-5.99 8.34 -6.98 7.68 -8 7 C-5.36 4.69 -2.72 2.38 0 0 Z " fill="#F3EEEE" transform="translate(169,13)"/>
</svg>