<svg width="119" height="39" viewBox="0 0 812 479" fill="none" xmlns="http://www.w3.org/2000/svg">
<g transform="scale(0.14646)" fill="white" stroke="none">
<path d="M1017 1930 c-69 -55 -26 -170 63 -169 89 0 132 115 63 169 -34 26 -92 26 -126 0z"/>
<path d="M220 1385 l0 -555 70 0 70 0 0 240 0 240 230 0 230 0 0 60 0 60 -230
0 -230 0 0 190 0 190 255 0 255 0 0 65 0 65 -325 0 -325 0 0 -555z"/>
<path d="M2690 1385 l0 -555 65 0 65 0 0 50 c0 28 3 50 6 50 4 0 27 -18 51
-41 84 -77 190 -104 301 -75 34 8 79 26 99 39 57 36 121 111 151 175 24 51 26
69 27 177 0 114 -2 123 -31 185 -38 80 -111 155 -184 189 -46 22 -69 26 -145
26 -78 0 -97 -4 -147 -28 -31 -15 -68 -41 -82 -58 -14 -16 -28 -28 -32 -27 -3
2 -5 103 -5 226 l2 222 -71 0 -70 0 0 -555z m503 72 c55 -33 82 -62 105 -117
108 -249 -110 -500 -334 -385 -76 40 -118 99 -135 194 -27 152 46 292 171 330
56 17 144 6 193 -22z"/>
<path d="M1668 1599 c-72 -8 -136 -45 -168 -98 -14 -22 -28 -41 -32 -41 -5 0
-8 29 -8 65 l0 65 -65 0 -65 0 0 -380 0 -380 70 0 70 0 0 235 c0 256 4 282 58
338 42 44 81 61 155 67 l69 5 23 55 c13 30 22 57 20 58 -11 11 -78 17 -127 11z"/>
<path d="M2085 1597 c-100 -30 -182 -105 -230 -210 -76 -166 -39 -367 90 -486
78 -71 145 -95 265 -95 87 0 101 3 162 32 45 22 81 49 112 84 65 75 65 82 -7
109 -47 18 -62 20 -65 10 -10 -31 -67 -81 -110 -98 -56 -21 -143 -22 -193 -1
-77 33 -137 111 -154 200 l-7 35 141 7 c77 4 192 4 254 0 62 -4 139 -4 171 0
l57 8 -7 66 c-13 125 -64 221 -152 289 -23 18 -59 37 -80 44 -54 16 -200 20
-247 6z m222 -130 c54 -29 118 -118 111 -154 -3 -15 -30 -17 -225 -19 -123 -1
-225 2 -228 6 -3 5 0 21 7 37 23 54 72 106 122 130 43 20 61 23 118 19 36 -2
79 -11 95 -19z"/>
<path d="M3764 1592 c-28 -10 -69 -32 -92 -50 -43 -35 -89 -99 -78 -110 4 -3
30 -16 58 -28 l51 -21 41 42 c28 29 56 47 86 55 85 23 196 -8 238 -67 25 -35
47 -107 39 -127 -6 -14 -11 -13 -51 4 -59 25 -175 35 -247 22 -111 -21 -204
-85 -236 -161 -18 -42 -20 -144 -4 -185 49 -124 207 -192 357 -151 51 14 77
28 118 66 30 27 57 49 60 49 3 0 6 -22 6 -50 l0 -50 66 0 66 0 -4 273 c-3 258
-5 275 -26 322 -25 55 -69 105 -120 137 -78 48 -233 62 -328 30z m291 -408
c47 -22 53 -33 43 -81 -10 -46 -73 -124 -119 -149 -122 -63 -279 -10 -279 93
0 75 49 131 136 152 52 14 178 5 219 -15z"/>
<path d="M4532 1592 c-113 -41 -177 -125 -168 -219 6 -64 33 -105 95 -144 46
-30 83 -43 229 -80 100 -26 142 -59 142 -112 0 -142 -258 -154 -345 -16 -14
21 -29 39 -34 39 -8 0 -102 -39 -110 -46 -9 -8 64 -106 99 -134 68 -54 126
-73 220 -74 103 -1 169 19 230 71 93 80 106 203 30 294 -39 48 -89 70 -237
107 -131 33 -169 52 -178 93 -15 65 33 109 128 116 87 7 139 -9 179 -56 l33
-38 57 24 57 25 -16 27 c-58 93 -134 132 -268 138 -70 3 -102 0 -143 -15z"/>
<path d="M5313 1591 c-64 -22 -112 -58 -163 -122 -59 -75 -83 -147 -83 -254
-1 -138 34 -225 124 -312 158 -152 448 -126 567 51 l33 50 -53 22 c-29 13 -57
23 -63 23 -5 0 -22 -17 -37 -39 -38 -55 -97 -83 -178 -83 -133 -1 -233 82
-255 211 l-7 42 64 2 c34 1 172 2 305 2 133 1 245 4 249 8 12 12 -16 159 -40
213 -43 94 -125 166 -220 191 -71 19 -180 17 -243 -5z m205 -113 c31 -8 59
-25 88 -53 40 -40 73 -109 59 -123 -10 -10 -444 -11 -450 -1 -12 18 30 92 73
129 66 59 133 73 230 48z"/>
<path d="M1010 1210 l0 -380 70 0 70 0 0 380 0 380 -70 0 -70 0 0 -380z"/>
</g>
</svg>
